<?xml version="1.0" standalone="no"?><!DOCTYPE svg PUBLIC "-//W3C//DTD SVG 1.1//EN" "http://www.w3.org/Graphics/SVG/1.1/DTD/svg11.dtd"><svg t="1594259945672" class="icon" viewBox="0 0 1024 1024" version="1.1" xmlns="http://www.w3.org/2000/svg" p-id="15199" xmlns:xlink="http://www.w3.org/1999/xlink" width="128" height="128"><defs><style type="text/css"></style></defs><path d="M279.893333 243.780267C281.668267 10.308267 479.4368 0 512 0c33.792 0 230.741333 10.24 232.174933 243.780267 0 0-0.682667 142.813867 0 146.295466-3.413333 146.090667-116.599467 195.242667-116.053333 243.848534-0.477867 121.719467 272.1792 149.435733 348.228267 219.409066 59.392 67.584 46.421333 170.666667 46.421333 170.666667H1.365333s-13.380267-103.082667 46.421334-170.666667c76.458667-69.973333 349.184-97.143467 348.228266-219.409066 1.160533-48.5376-111.4112-98.304-116.053333-243.848534 0.682667-3.754667 0.682667-133.5296 0-146.295466z m264.874667 605.525333l65.7408-69.085867-98.440533-103.492266-98.5088 103.492266 65.809066 69.085867L442.368 1024h139.264l-36.864-174.6944z" fill="#F4F4F5" p-id="15200"></path></svg>