<?xml version="1.0" standalone="no"?><!DOCTYPE svg PUBLIC "-//W3C//DTD SVG 1.1//EN" "http://www.w3.org/Graphics/SVG/1.1/DTD/svg11.dtd"><svg t="1584759808991" class="icon" viewBox="0 0 1025 1024" version="1.1" xmlns="http://www.w3.org/2000/svg" p-id="1627" xmlns:xlink="http://www.w3.org/1999/xlink" width="200.1953125" height="200"><defs><style type="text/css"></style></defs><path d="M40.708083 1023.998957a20.867914 20.867914 0 0 1-20.867914-20.867914V23.102867c0-11.525349 9.342565-20.867914 20.867914-20.867913H924.04165c11.514915 0 20.853306 9.326914 20.867914 20.842872 0.00626 4.709888 0.572824 472.160544 1.043396 573.476352 0.053213 11.524305-9.245529 20.910693-20.770878 20.964949h-0.099123c-11.480483 0.001043-20.81157-9.278918-20.865827-20.770878-0.413185-89.02878-0.90045-460.384781-1.018354-552.777468H61.575996v938.280871c73.220292-0.045909 318.73547-0.231634 412.769419-0.692815h0.104339c11.477353 0 20.809483 9.275788 20.865827 20.765661 0.056343 11.525349-9.240312 20.913823-20.765661 20.970167-110.634374 0.542566-430.611485 0.703249-433.83036 0.705335l-0.011477-0.001043z" p-id="1628"></path><path d="M732.415773 390.691166H227.724238c-11.525349 0-20.867914-9.342565-20.867914-20.867914s9.342565-20.867914 20.867914-20.867913h504.691535c11.525349 0 20.867914 9.342565 20.867913 20.867913s-9.342565 20.867914-20.867913 20.867914z" p-id="1629"></path><path d="M480.070527 861.989866c-11.525349 0-20.867914-9.342565-20.867914-20.867914v-510.293526c0-11.525349 9.342565-20.867914 20.867914-20.867914s20.867914 9.342565 20.867914 20.867914v510.293526c0 11.525349-9.343608 20.867914-20.867914 20.867914z" p-id="1630"></path><path d="M731.852339 572.630158H228.290802c-11.525349 0-20.867914-9.342565-20.867914-20.867914s9.342565-20.867914 20.867914-20.867913h503.561537c11.525349 0 20.867914 9.342565 20.867914 20.867913s-9.342565 20.867914-20.867914 20.867914zM492.697702 355.595509a20.790702 20.790702 0 0 1-13.757172-5.18359L298.411165 191.982719c-8.662271-7.602181-9.522029-20.786529-1.919848-29.4488 7.601138-8.663314 20.786529-9.522029 29.449843-1.919848l180.529365 158.428157c8.662271 7.602181 9.522029 20.786529 1.919848 29.4488a20.818874 20.818874 0 0 1-15.692671 7.104481z" p-id="1631"></path><path d="M481.522934 355.595509c-5.799193 0-11.568128-2.40294-15.692671-7.104481-7.602181-8.662271-6.742423-21.846619 1.919848-29.4488l180.531451-158.428157c8.664358-7.602181 21.849749-6.742423 29.449843 1.919848 7.602181 8.662271 6.743466 21.846619-1.919848 29.4488L495.280106 350.410876a20.791746 20.791746 0 0 1-13.757172 5.184633zM987.153525 860.657449H587.467245c-11.525349 0-20.867914-9.342565-20.867914-20.867913s9.342565-20.867914 20.867914-20.867914h399.68628c11.525349 0 20.867914 9.342565 20.867914 20.867914s-9.342565 20.867914-20.867914 20.867913z" p-id="1632"></path><path d="M987.138917 854.396032a20.777138 20.777138 0 0 1-12.859851-4.445909L826.515456 734.121725c-9.069195-7.109698-10.65933-20.227269-3.548589-29.297508 7.108655-9.070239 20.227269-10.65933 29.297507-3.549632L1000.027984 817.104027c9.071282 7.109698 10.65933 20.227269 3.548589 29.297507-4.115153 5.250367-10.245102 7.994498-16.437656 7.994498z" p-id="1633"></path><path d="M839.403479 977.516722c-6.193597 0-12.32146-2.743087-16.437655-7.995541-7.109698-9.070239-5.520607-22.187809 3.548588-29.297507l147.76361-115.828398c9.072325-7.110742 22.188853-5.520607 29.297508 3.549632 7.109698 9.070239 5.522693 22.186766-3.548589 29.297507L852.263331 973.070813a20.781312 20.781312 0 0 1-12.859852 4.445909z" p-id="1634"></path></svg>