<?xml version="1.0" standalone="no"?><!DOCTYPE svg PUBLIC "-//W3C//DTD SVG 1.1//EN" "http://www.w3.org/Graphics/SVG/1.1/DTD/svg11.dtd"><svg t="1594259375572" class="icon" viewBox="0 0 1024 1024" version="1.1" xmlns="http://www.w3.org/2000/svg" p-id="5537" width="128" height="128" xmlns:xlink="http://www.w3.org/1999/xlink"><defs><style type="text/css"></style></defs><path d="M988.39008395 147.45802272H607.2780168c-22.78387358 0-41.42522469 18.64135111-41.4252247 41.42522469v209.19738469c0 22.78387358 18.64135111 41.42522469 41.4252247 41.4252247H988.39008395c22.78387358 0 41.42522469-18.64135111 41.42522469-41.4252247V188.88324741c0-22.78387358-18.64135111-41.42522469-41.42522469-41.42522469z" p-id="5538"></path><path d="M988.39008395 489.21612642H607.2780168c-22.78387358 0-41.42522469 18.64135111-41.4252247 41.42522469v14.49882864c0 41.42522469-31.06891852 76.63666569-70.42288197 78.70792692-20.71261235 0-39.35396347-6.2137837-53.8527921-20.71261236-14.49882864-14.49882864-22.78387358-33.14017975-22.78387358-51.78153084V188.88324741c0-22.78387358-18.64135111-41.42522469-41.4252247-41.42522469h-130.48945778c-53.8527921 0-101.4918005 37.28270222-113.91936789 91.13549431l-124.27567408 528.17161482c-10.35630617 20.71261235-14.49882864 45.56774717-14.49882864 70.42288198 0 97.34927803 78.70792691 173.9859437 173.9859437 173.9859437 82.85044939 0 151.20207013-57.99531457 169.84342124-132.56071901h345.90062617c18.64135111 76.63666569 86.99297185 132.56071902 169.84342123 132.56071901 97.34927803 0 173.9859437-78.70792691 173.98594371-173.9859437V530.64135111c2.07126124-22.78387358-16.57008987-41.42522469-39.35396346-41.42522469zM168.17063506 928.32350815c-49.71026963 0-91.13549431-41.42522469-91.13549431-91.13549432 0-18.64135111 6.2137837-35.21144098 14.49882864-49.71026964 0-2.07126124 2.07126124-2.07126124 2.07126122-4.14252246 2.07126124-4.14252247 6.2137837-6.2137837 8.28504494-10.35630618l2.07126125-2.07126124c4.14252247-4.14252247 6.2137837-6.2137837 10.35630617-8.28504492l2.07126122-2.07126124c4.14252247-2.07126124 10.35630617-6.2137837 14.49882864-8.28504495h2.07126125c4.14252247-2.07126124 8.28504494-4.14252247 14.49882864-4.14252245h4.14252246c6.2137837 0 10.35630617-2.07126124 16.57008988-2.07126125 49.71026963 0 91.13549431 41.42522469 91.13549433 91.13549433s-39.35396347 91.13549431-91.13549433 91.13549432z m687.65872988 0c-49.71026963 0-91.13549431-41.42522469-91.13549433-91.13549432s41.42522469-91.13549431 91.13549433-91.13549433 91.13549431 41.42522469 91.13549431 91.13549433-41.42522469 91.13549431-91.13549431 91.13549432zM188.88324741 95.67649185h267.19269926c22.78387358 0 41.42522469-18.64135111 41.42522469-41.42522468s-18.64135111-41.42522469-41.42522469-41.4252247H188.88324741c-22.78387358 0-41.42522469 18.64135111-41.42522469 41.4252247s18.64135111 41.42522469 41.42522469 41.42522468z" p-id="5539"></path></svg>