<?xml version="1.0" standalone="no"?><!DOCTYPE svg PUBLIC "-//W3C//DTD SVG 1.1//EN" "http://www.w3.org/Graphics/SVG/1.1/DTD/svg11.dtd"><svg t="1583485693985" class="icon" viewBox="0 0 1024 1024" version="1.1" xmlns="http://www.w3.org/2000/svg" p-id="12507" xmlns:xlink="http://www.w3.org/1999/xlink" width="200" height="200"><defs><style type="text/css"></style></defs><path d="M523.42062014 282.34070181a18.14984528 18.14984528 0 0 0-19.08060698-18.14984527h-25.13055488v36.29969055h25.13055488a18.14984528 18.14984528 0 0 0 19.08060698-18.14984528z" p-id="12508"></path><path d="M812.88738037 90.13849587h-604.99483704A73.06476113 73.06476113 0 0 0 136.22392395 163.20325703v698.07096605a72.59938028 72.59938028 0 0 0 73.06476114 72.59938111h604.99483703a72.59938028 72.59938028 0 0 0 73.06476115-72.59938111v-698.07096605A73.06476113 73.06476113 0 0 0 812.88738037 90.13849587zM435.4636781 225.09888248H508.52843923a56.77643847 56.77643847 0 0 1 58.63796111 57.24181933 51.65725149 51.65725149 0 0 1-28.85360011 46.53806452l38.6265932 74.46090289h-51.19187063l-31.64588362-66.08405154h-14.8921809v66.5494324h-43.74578018z m-186.15225805 0h43.745781v68.87633587h46.53806451V225.09888248h43.74578019v178.7061676h-41.41887754V333.06719241h-46.53806369v70.73785767h-44.21116186z m279.22838708 584.05270908H265.13436268a23.73441311 23.73441311 0 1 1-1e-8-46.53806453h265.26696707a23.73441311 23.73441311 0 0 1 0 46.53806453z m156.36789624-119.60282566H265.13436268a23.73441311 23.73441311 0 0 1-23.73441313-23.73441312 23.26903225 23.26903225 0 0 1 23.73441312-23.26903225h421.63486331a23.26903225 23.26903225 0 0 1 23.26903226 23.26903225 23.73441311 23.73441311 0 0 1-23.26903226 23.73441312z m93.07612903-120.06820651H265.13436268a24.19979316 24.19979316 0 0 1-1e-8-46.53806452h515.17637237a24.19979316 24.19979316 0 0 1 0 46.53806452z" p-id="12509"></path></svg>