<?xml version="1.0" standalone="no"?><!DOCTYPE svg PUBLIC "-//W3C//DTD SVG 1.1//EN" "http://www.w3.org/Graphics/SVG/1.1/DTD/svg11.dtd"><svg t="1583479345256" class="icon" viewBox="0 0 1024 1024" version="1.1" xmlns="http://www.w3.org/2000/svg" p-id="11554" xmlns:xlink="http://www.w3.org/1999/xlink" width="200" height="200"><defs><style type="text/css"></style></defs><path d="M640.256 719.744c0 15.872 12.8 28.672 28.672 28.672l260.224 0c15.872 0 28.672-12.8 28.672-28.672s-12.8-28.672-28.672-28.672L668.928 691.072C653.056 690.944 640.256 704 640.256 719.744z" p-id="11555"></path><path d="M929.152 807.808 668.928 807.808c-15.872 0-28.672 12.8-28.672 28.672s12.8 28.672 28.672 28.672l260.224 0c15.872 0 28.672-12.8 28.672-28.672C957.824 820.864 945.024 807.808 929.152 807.808z" p-id="11556"></path><path d="M929.152 924.8 668.928 924.8c-15.872 0-28.672 12.8-28.672 28.672s12.8 28.672 28.672 28.672l260.224 0c15.872 0 28.672-12.8 28.672-28.672S945.024 924.8 929.152 924.8z" p-id="11557"></path><path d="M129.024 912.128c-4.48-9.984-5.76-27.776-5.376-36.608 0-0.128 0-0.384 0-0.512 3.968-199.04 170.624-360.96 371.456-360.96 106.24 0 203.008 45.312 271.104 117.632l75.52 0c-13.824-18.688-29.184-36.608-46.208-53.12-49.152-48-108.16-82.688-172.16-102.656 64.768-42.112 107.776-115.072 107.776-198.016 0-130.176-105.856-236.032-236.032-236.032s-236.032 105.856-236.032 236.032c0 82.944 43.008 155.904 107.776 198.016-64.128 19.84-123.008 54.528-172.16 102.4C114.176 656.768 68.48 761.6 66.176 873.472c-0.128 4.992-0.768 37.376 10.496 62.336 16.64 36.736 57.984 46.08 79.488 45.696l424.448 0.384 0-57.344L155.776 924.16C155.648 924.16 134.016 923.264 129.024 912.128zM316.416 277.888c0-98.56 80.128-178.688 178.688-178.688s178.688 80.128 178.688 178.688-80.128 178.688-178.688 178.688S316.416 376.448 316.416 277.888z" p-id="11558"></path></svg>