<?xml version="1.0" standalone="no"?><!DOCTYPE svg PUBLIC "-//W3C//DTD SVG 1.1//EN" "http://www.w3.org/Graphics/SVG/1.1/DTD/svg11.dtd"><svg t="1594265447164" class="icon" viewBox="0 0 1024 1024" version="1.1" xmlns="http://www.w3.org/2000/svg" p-id="17383" width="128" height="128" xmlns:xlink="http://www.w3.org/1999/xlink"><defs><style type="text/css"></style></defs><path d="M1009.01387 424.541665L584.504199 30.011311c-18.525105-18.525105-44.121106-29.979316-72.404686-29.979316s-53.879581 11.45421-72.404687 29.979316L15.185155 424.541665a51.096016 51.096016 0 0 0 36.026371 87.410342h51.383972V921.456022a102.384002 102.384002 0 0 0 102.384002 102.384003h209.02334v-206.91167a100.272332 100.272332 0 1 1 200.544665 0v206.97566h204.768005a102.384002 102.384002 0 0 0 102.384003-102.384003v-409.53601h51.383971a51.128011 51.128011 0 0 0 36.026371-87.410342z" p-id="17384"></path></svg>