<?xml version="1.0" standalone="no"?><!DOCTYPE svg PUBLIC "-//W3C//DTD SVG 1.1//EN" "http://www.w3.org/Graphics/SVG/1.1/DTD/svg11.dtd"><svg t="1583403725780" class="icon" viewBox="0 0 1024 1024" version="1.1" xmlns="http://www.w3.org/2000/svg" p-id="12908" xmlns:xlink="http://www.w3.org/1999/xlink" width="200" height="200"><defs><style type="text/css"></style></defs><path d="M1019.315975 789.798733c2.161858 3.963406 3.603096 7.926812 4.323715 12.250528v0.720619c0.720619 5.764954 0.36031 11.890218-1.441238 17.294863-1.801548 5.044335-4.323716 10.08867-8.287122 14.052076-0.36031 0.36031-0.720619 0.36031-0.720619 0.720619l-177.632653 177.632653c-4.684025 4.684025-10.809289 7.926812-16.934553 9.728361s-12.971147 1.801548-19.817031 0c-6.485574-1.801548-12.610837-5.404645-16.934553-9.728361-4.684025-4.684025-7.926812-10.44898-9.72836-16.934553s-1.801548-13.331457 0-19.81703c1.801548-6.125264 4.684025-11.529909 9.007741-16.213934l1.080929-1.080929 113.137227-112.776917H512.36031c-10.44898 0-19.81703-4.323716-26.662914-11.169599s-11.169599-16.213934-11.169599-26.662914 4.323716-19.81703 11.169599-26.662913 16.213934-11.169599 26.662914-11.169599h382.648838l-112.776917-112.776918-1.080929-1.080929c-5.404645-4.684025-9.368051-10.44898-11.529909-16.934553s-2.522167-13.691766-0.720619-20.537649 5.044335-12.971147 10.08867-18.015482 11.169599-8.647431 18.015482-10.08867c6.845883-1.801548 14.052076-1.441239 20.53765 0.720619 6.125264 1.801548 11.890218 5.404645 16.213934 10.44898 0.720619 0.720619 1.080929 1.441239 1.801548 2.161857l174.029556 174.029557 1.080929 1.080929c3.603096 2.882477 6.485574 6.485574 8.647432 10.44898zM308.425053 1023.63969H38.192822c-10.44898 0-19.81703-4.323716-26.662913-11.169599s-11.169599-16.213934-11.169599-26.662913V334.007037c0-6.485574 1.801548-12.971147 4.684025-18.375791s7.566502-10.44898 12.971147-13.691767L491.82266 5.764954c6.125264-3.963406 12.971147-5.764954 20.17734-5.764954 6.845883 0 14.052076 1.801548 20.17734 5.764954l473.807178 296.174525c5.404645 3.603096 10.08867 8.287122 12.971147 13.691767 3.242787 5.764954 4.684025 11.890218 4.684025 18.375791v177.632653c0 10.44898-4.323716 19.81703-11.169599 26.662914s-16.213934 11.169599-26.662913 11.169599-19.81703-4.323716-26.662913-11.169599-11.169599-16.213934-11.169599-26.662914v-144.484166c0-7.206193-3.603096-14.052076-10.08867-18.015482L523.529909 89.717101c-6.845883-4.323716-15.493315-4.684025-22.699508-0.36031L87.194933 347.698804c-6.485574 3.603096-11.169599 10.809289-11.169599 18.736101v559.921182c0 11.890218 9.72836 21.258269 21.258269 21.258269h210.78114c10.44898 0 19.81703 4.323716 26.662914 11.169599s11.169599 16.213934 11.169598 26.662913-4.323716 19.81703-11.169598 26.662914-16.213934 11.169599-26.662914 11.169599z" p-id="12909"></path></svg>