<?xml version="1.0" standalone="no"?><!DOCTYPE svg PUBLIC "-//W3C//DTD SVG 1.1//EN" "http://www.w3.org/Graphics/SVG/1.1/DTD/svg11.dtd"><svg t="1583479300108" class="icon" viewBox="0 0 1024 1024" version="1.1" xmlns="http://www.w3.org/2000/svg" p-id="10900" xmlns:xlink="http://www.w3.org/1999/xlink" width="200" height="200"><defs><style type="text/css"></style></defs><path d="M571.927273 23.435636c-13.661091-1.675636-25.576727 9.448727-25.576728 23.202909v117.992728c0 11.636364 8.634182 21.108364 20.107637 23.063272 146.711273 24.948364 260.002909 147.921455 270.033454 299.217455 0.791273 11.962182 11.194182 21.015273 23.156364 21.015273h116.619636c13.102545 0 23.970909-10.845091 23.319273-23.947637-11.496727-238.475636-194.094545-431.685818-427.659636-460.544zM952.785455 577.745455c-15.732364 0-29.835636 10.519273-33.419637 25.832727a417.978182 417.978182 0 0 1-88.133818 174.196363c-72.587636 15.988364-207.243636 34.397091-319.767273-13.847272-136.517818-58.507636-288.930909-19.060364-334.871272-4.724364a417.233455 417.233455 0 0 1-73.006546-155.624727c-3.584-15.313455-17.687273-25.832727-33.442909-25.832727-22.155636 0-38.935273 20.642909-33.885091 42.216727 50.664727 215.831273 243.921455 376.692364 475.229091 376.692363 231.284364 0 424.541091-160.861091 475.229091-376.692363 5.026909-21.573818-11.776-42.216727-33.931636-42.216727z m-580.957091-51.269819c0 79.732364 62.533818 144.360727 139.636363 144.360728 77.125818 0 139.636364-64.628364 139.636364-144.360728 0-34.746182-23.575273-83.758545-51.479273-128-36.072727-57.297455-79.429818-146.548364-88.157091-146.548363-8.750545 0-52.340364 89.6-88.506182 147.130182-27.741091 44.078545-51.130182 92.858182-51.130181 127.418181z m-208.570182-18.548363c11.985455 0 22.365091-9.053091 23.179636-21.015273 10.030545-151.272727 123.345455-274.269091 270.033455-299.217455 11.473455-1.954909 20.084364-11.450182 20.084363-23.04v-117.992727c0-13.777455-11.869091-24.901818-25.553454-23.226182C217.413818 52.293818 34.816 245.527273 23.296 484.002909c-0.628364 13.079273 10.24 23.924364 23.342545 23.924364h116.596364z" p-id="10901"></path></svg>