<?xml version="1.0" standalone="no"?><!DOCTYPE svg PUBLIC "-//W3C//DTD SVG 1.1//EN" "http://www.w3.org/Graphics/SVG/1.1/DTD/svg11.dtd"><svg t="1583403749083" class="icon" viewBox="0 0 1024 1024" version="1.1" xmlns="http://www.w3.org/2000/svg" p-id="1173" xmlns:xlink="http://www.w3.org/1999/xlink" width="200" height="200"><defs><style type="text/css"></style></defs><path d="M714.970218 1023.322303h270.401059c10.165453 0 19.65321-4.066181 27.107876-10.84315 6.776969-6.776969 10.84315-16.264725 10.84315-27.107876V334.104567c0-6.776969-1.355394-12.876241-4.743878-18.297817s-7.454666-10.165453-12.876241-13.553937L531.992058 6.099272c-6.099272-4.066181-12.876241-5.421575-20.330906-5.421575-6.776969 0-14.231635 2.033091-20.330907 5.421575L17.620119 302.252813c-5.421575 3.388484-10.165453 8.132363-12.876241 13.553937-3.388484 5.421575-4.743878 12.198544-4.743878 18.297817v177.556585c0 10.165453 4.066181 19.65321 10.84315 27.107875 6.776969 6.776969 16.264725 10.84315 27.107876 10.84315 10.165453 0 19.65321-4.066181 27.107875-10.84315 6.776969-6.776969 10.84315-16.264725 10.843151-27.107875V367.311714c0-6.776969 3.388484-14.231635 10.165453-18.297816l414.072799-258.880212c6.776969-4.066181 15.587028-4.743878 23.041695 0l413.395102 258.202515c6.776969 3.388484 10.84315 10.84315 10.84315 18.975513v559.777631c0 11.520847-9.487756 21.008604-21.008603 21.008603h-210.763733c-10.165453 0-19.65321 4.066181-27.107875 10.843151-6.776969 6.776969-10.84315 16.264725-10.843151 27.107875 0 10.165453 4.066181 19.65321 10.843151 27.107876 6.776969 6.776969 16.264725 10.84315 27.107875 10.84315z m-170.101919-233.805427c2.033091 4.066181 3.388484 8.132363 4.066181 12.198544v0.677697c0.677697 6.099272 0 12.198544-1.355393 17.620119-2.033091 5.421575-4.743878 10.165453-8.132363 14.231635l-0.677697 0.677697-177.556585 177.556585c-4.743878 4.743878-10.84315 8.132363-16.942422 9.487756s-12.876241 1.355394-19.65321 0c-6.776969-2.033091-12.198544-5.421575-16.942422-10.165453s-8.132363-10.165453-9.487757-16.942422c-2.033091-6.776969-1.355394-13.553938 0-19.65321s4.743878-11.520847 8.81006-16.264725l0.677697-0.677697 113.17538-112.497684H37.951026c-10.165453 0-19.65321-4.066181-27.107876-10.84315-6.776969-6.776969-10.84315-16.264725-10.84315-27.107876 0-10.165453 4.066181-19.65321 10.84315-27.107875 6.776969-6.776969 16.264725-10.84315 27.107876-10.843151h382.221045L307.674388 657.365983l-1.355394-1.355394c-5.421575-4.743878-9.487756-10.84315-11.520847-16.942422-2.033091-6.776969-2.710788-13.553938-0.677697-21.008604 1.355394-6.776969 5.421575-12.876241 10.165453-17.620119s10.84315-8.81006 17.62012-10.165453 14.231635-1.355394 21.008603 0.677697c6.099272 2.033091 11.520847 5.421575 16.264725 10.165453l2.033091 2.033091 174.168101 174.1681 1.355393 1.355394c3.388484 2.710788 6.099272 6.776969 8.81006 10.84315z" p-id="1174"></path></svg>