<?xml version="1.0" standalone="no"?><!DOCTYPE svg PUBLIC "-//W3C//DTD SVG 1.1//EN" "http://www.w3.org/Graphics/SVG/1.1/DTD/svg11.dtd"><svg t="1594259440129" class="icon" viewBox="0 0 1024 1024" version="1.1" xmlns="http://www.w3.org/2000/svg" p-id="7450" width="128" height="128" xmlns:xlink="http://www.w3.org/1999/xlink"><defs><style type="text/css"></style></defs><path d="M950.618 334.916c-0.065-0.49-0.158-0.946-0.258-1.335-0.386-1.893-0.902-3.718-1.643-5.474l-75.604-190.215c-13.058-39.319-49.212-63.735-94.687-63.735H247.793c-44.573 0-79.204 23.96-91.755 61.838L74.763 330.088c-0.382 1.145-0.807 2.832-1.16 4.569-5.904 18.32-8.87 37.127-8.87 56.003 0.065 66.404 36.122 127.032 94.014 158.167 23.834 12.91 51.922 19.43 83.463 19.43h0.097c52.928-0.128 101.946-23.632 135.362-63.863 33.25 39.864 81.882 63.236 134.713 63.568 52.412-0.396 100.886-23.862 134.002-63.732 33.42 40.23 82.506 63.667 135.686 63.667 32.19-0.195 60.764-7.01 84.821-20.372 57.023-31.455 92.4-91.863 92.376-157.547 0.027-18.908-3.035-37.818-8.649-55.062zM762.75 366.699H246.691c-17.8 0-32.25-14.604-32.25-32.597 0-17.994 14.45-32.6 32.25-32.6h516.06c17.835 0 32.253 14.606 32.253 32.6-0.003 17.996-14.418 32.597-32.254 32.597z" fill="" p-id="7451"></path><path d="M860.146 594.923c-3.327 0-6.32 0.947-9.322 1.92-23.894 9.556-54.47 14.706-77.531 13.435-50.826-2.738-89.562-12.981-126.871-45.083-36.806 31.714-83.762 49.774-133.75 50.232-50.697-0.33-97.915-13.171-134.912-44.954-37.213 32.074-84.721 47.686-135.326 47.686h-0.192c-30.895 0-48.314-5.93-76.44-16.425-0.77-0.388-1.574-0.584-2.382-0.88-1.355-0.521-2.389-0.882-3.775-1.4 0 0-4.645-0.816-7.193-0.816h-0.064c-17.805 0-32.219 14.63-32.19 32.662l0.227 235.189c0 45.967 37.057 83.353 82.628 83.353l606.91-0.386c45.505-0.134 82.528-37.62 82.528-83.588l-0.093-238.354c0.001-18.019-14.416-32.591-32.252-32.591z" fill="" p-id="7452"></path></svg>