<?xml version="1.0" standalone="no"?><!DOCTYPE svg PUBLIC "-//W3C//DTD SVG 1.1//EN" "http://www.w3.org/Graphics/SVG/1.1/DTD/svg11.dtd"><svg t="1583466637345" class="icon" viewBox="0 0 1024 1024" version="1.1" xmlns="http://www.w3.org/2000/svg" p-id="3530" xmlns:xlink="http://www.w3.org/1999/xlink" width="200" height="200"><defs><style type="text/css"></style></defs><path d="M992.492308 935.384615h-13.784616V710.892308c0-21.661538-3.938462-43.323077-9.846154-64.984616-11.815385-37.415385-35.446154-72.861538-64.984615-102.4-47.261538-45.292308-108.307692-68.923077-173.292308-68.923077-64.984615 0-128 25.6-175.261538 68.923077-47.261538 45.292308-70.892308 104.369231-70.892308 167.384616v222.523077h-15.753846c-11.815385 0-27.569231 5.907692-27.569231 19.692307s9.846154 19.692308 23.63077 19.692308h529.723076c13.784615 0 23.630769-5.907692 23.63077-19.692308 0-11.815385-11.815385-17.723077-25.6-17.723077z m-468.676923 0V712.861538c0-53.169231 19.692308-102.4 59.076923-139.815384 39.384615-37.415385 90.584615-59.076923 145.723077-59.076923s106.338462 19.692308 145.723077 59.076923c39.384615 37.415385 63.015385 86.646154 63.015384 139.815384v222.523077h-413.538461z" p-id="3531"></path><path d="M740.430769 718.769231h59.076923l-82.707692 171.323077v-137.846154h-61.046154l84.676923-177.230769zM157.538462 630.153846h196.923076c11.815385 0 19.692308 7.876923 19.692308 19.692308s-7.876923 19.692308-19.692308 19.692308H157.538462c-11.815385 0-19.692308-7.876923-19.692308-19.692308s7.876923-19.692308 19.692308-19.692308zM137.846154 256c0-11.815385 7.876923-19.692308 19.692308-19.692308h472.615384c11.815385 0 19.692308 7.876923 19.692308 19.692308s-7.876923 19.692308-19.692308 19.692308H157.538462c-11.815385 0-19.692308-7.876923-19.692308-19.692308zM472.615385 452.923077H157.538462c-11.815385 0-19.692308-7.876923-19.692308-19.692308s7.876923-19.692308 19.692308-19.692307h315.076923c11.815385 0 19.692308 7.876923 19.692307 19.692307s-7.876923 19.692308-19.692307 19.692308z" p-id="3532"></path><path d="M807.384615 135.876923c0-43.323077-35.446154-78.769231-78.76923-78.769231H137.846154c-43.323077 0-78.769231 35.446154-78.769231 78.769231v748.307692c0 43.323077 35.446154 78.769231 78.769231 78.769231l242.215384 3.938462c9.846154 13.784615 19.692308 27.569231 31.507693 41.353846L137.846154 1004.307692c-64.984615 0-118.153846-53.169231-118.153846-118.153846V137.846154c0-64.984615 53.169231-118.153846 118.153846-118.153846h590.769231c64.984615 0 118.153846 53.169231 118.153846 118.153846l5.907692 297.353846c-13.784615-5.907692-25.6-11.815385-39.384615-17.723077L807.384615 135.876923z" p-id="3533"></path></svg>