<?xml version="1.0" standalone="no"?><!DOCTYPE svg PUBLIC "-//W3C//DTD SVG 1.1//EN" "http://www.w3.org/Graphics/SVG/1.1/DTD/svg11.dtd"><svg t="1583403699576" class="icon" viewBox="0 0 1024 1024" version="1.1" xmlns="http://www.w3.org/2000/svg" p-id="12153" xmlns:xlink="http://www.w3.org/1999/xlink" width="200" height="200"><defs><style type="text/css"></style></defs><path d="M831.7 960.2H189.8c-34.8 0-63.1-27.8-63.1-62.1v-713c0-34.2 28.3-62.1 63.1-62.1h112.1L385 244.6v2h256v-1.1L714.9 123h116.7c34.8 0 63.1 27.8 63.1 62.1v713.1c0.1 34.2-28.2 62-63 62z m-641.1-64h640.1V187H751l-47 78.1c-5 25.9-28.2 45.6-56 45.6H378c-27.4 0-50.3-19.1-55.8-44.4L268.1 187h-77.5v709.2z m641.1 0z" p-id="12154"></path><path d="M596 223.8H418c-23.7 0-43-19.3-43-43v-71.6c0-23.7 19.3-43 43-43h178c23.7 0 43 19.3 43 43v71.6c0 23.7-19.3 43-43 43z m-157-64h136v-29.6H439v29.6zM601.8 498.5l-60.1-60.1c-5.3-10.2-15.9-17.1-28.1-17.1h-1.5c-8.5-0.2-17 2.9-23.4 9.4-2.3 2.3-4.1 4.8-5.5 7.4l-60.4 60.4c-12.5 12.5-12.5 32.8 0 45.3s32.8 12.5 45.3 0l13.2-13.2v150.3c0 17.5 14.2 31.7 31.7 31.7h0.7c17.5 0 31.7-14.2 31.7-31.7V532.4l11.3 11.3c12.5 12.5 32.8 12.5 45.3 0 12.3-12.5 12.3-32.7-0.2-45.2z" p-id="12155"></path></svg>