<?xml version="1.0" standalone="no"?><!DOCTYPE svg PUBLIC "-//W3C//DTD SVG 1.1//EN" "http://www.w3.org/Graphics/SVG/1.1/DTD/svg11.dtd"><svg t="1583403684035" class="icon" viewBox="0 0 1024 1024" version="1.1" xmlns="http://www.w3.org/2000/svg" p-id="11928" xmlns:xlink="http://www.w3.org/1999/xlink" width="200" height="200"><defs><style type="text/css"></style></defs><path d="M379.8 994.6H152.9C68.6 994.6 0 926 0 841.7V182.3C0 98 68.6 29.4 152.9 29.4h716.3c84.3 0 152.9 68.6 152.9 152.9v232.5c0 17.8-14.4 32.2-32.2 32.2-17.8 0-32.2-14.4-32.2-32.2V182.3c0-48.8-39.7-88.5-88.5-88.5H152.9c-48.8 0-88.5 39.7-88.5 88.5v659.3c0 48.8 39.7 88.5 88.5 88.5h226.9c17.8 0 32.2 14.4 32.2 32.2 0 17.8-14.4 32.3-32.2 32.3z" fill="" p-id="11929"></path><path d="M734 318.6H247.1c-17.7 0-32.2-14.5-32.2-32.2 0-17.7 14.5-32.2 32.2-32.2H734c17.7 0 32.2 14.5 32.2 32.2 0 17.7-14.4 32.2-32.2 32.2zM733.4 511.9H246.5c-17.7 0-32.2-14.5-32.2-32.2 0-17.7 14.5-32.2 32.2-32.2h486.9c17.7 0 32.2 14.5 32.2 32.2 0 17.7-14.4 32.2-32.2 32.2zM363.2 705.1H246.5c-17.7 0-32.2-14.5-32.2-32.2 0-17.7 14.5-32.2 32.2-32.2h116.7c17.7 0 32.2 14.5 32.2 32.2 0 17.7-14.5 32.2-32.2 32.2zM662.3 995.3c-4.7 0-9.4-0.9-13.9-2.8-13.6-5.6-22.3-18.7-22.3-33.4V717.5c0-67.7 55.1-122.7 122.7-122.7h238.9c14.7 0 27.8 8.8 33.4 22.3 5.6 13.5 2.6 29-7.8 39.4L687.9 984.7c-7 6.9-16.2 10.6-25.6 10.6z m86.5-336.1c-32.2 0-58.4 26.2-58.4 58.4v173.1L920 659.2H748.8z" fill="" p-id="11930"></path></svg>