<?xml version="1.0" standalone="no"?><!DOCTYPE svg PUBLIC "-//W3C//DTD SVG 1.1//EN" "http://www.w3.org/Graphics/SVG/1.1/DTD/svg11.dtd"><svg t="1594259391203" class="icon" viewBox="0 0 1024 1024" version="1.1" xmlns="http://www.w3.org/2000/svg" p-id="5718" width="128" height="128" xmlns:xlink="http://www.w3.org/1999/xlink"><defs><style type="text/css"></style></defs><path d="M1018.88 440.32c-5.12-20.48-25.6-46.08-46.08-51.2l-15.36-5.12c-40.96-10.24-71.68-35.84-97.28-76.8-20.48-35.84-25.6-81.92-15.36-122.88l5.12-15.36c5.12-20.48 0-51.2-20.48-66.56 0 0-15.36-15.36-61.44-40.96-46.08-25.6-61.44-30.72-61.44-30.72-20.48-10.24-51.2 0-66.56 15.36l-10.24 10.24c-30.72 25.6-71.68 46.08-112.64 46.08-46.08 0-87.04-15.36-112.64-46.08L389.12 51.2C368.64 35.84 343.04 30.72 317.44 35.84c0 0-20.48 5.12-61.44 30.72-46.08 25.6-61.44 40.96-61.44 40.96-15.36 15.36-25.6 46.08-15.36 66.56l5.12 15.36c10.24 40.96 5.12 81.92-15.36 122.88-25.6 35.84-61.44 61.44-102.4 76.8H51.2c-20.48 5.12-46.08 25.6-46.08 51.2 0 0-5.12 20.48-5.12 71.68s5.12 71.68 5.12 71.68c5.12 20.48 25.6 46.08 46.08 51.2l15.36 5.12c40.96 10.24 76.8 35.84 97.28 76.8 20.48 35.84 25.6 81.92 15.36 122.88l-5.12 15.36c-5.12 20.48 0 51.2 20.48 66.56 0 0 15.36 15.36 61.44 40.96s61.44 30.72 61.44 30.72c20.48 10.24 51.2 0 66.56-15.36l10.24-10.24c30.72-30.72 71.68-46.08 112.64-46.08 46.08 0 87.04 15.36 112.64 46.08l10.24 10.24c15.36 15.36 46.08 25.6 66.56 15.36 0 0 20.48-5.12 61.44-30.72 46.08-25.6 61.44-40.96 61.44-40.96 15.36-15.36 25.6-46.08 20.48-66.56l-5.12-15.36c-10.24-40.96-5.12-81.92 15.36-122.88 20.48-35.84 56.32-66.56 97.28-76.8l15.36-5.12c20.48-5.12 46.08-25.6 46.08-51.2 0 0 5.12-20.48 5.12-71.68 10.24-51.2 5.12-71.68 5.12-71.68M512 716.8c-112.64 0-204.8-92.16-204.8-204.8s92.16-204.8 204.8-204.8 204.8 92.16 204.8 204.8-92.16 204.8-204.8 204.8m0 0" fill="" p-id="5719"></path></svg>