<?xml version="1.0" standalone="no"?><!DOCTYPE svg PUBLIC "-//W3C//DTD SVG 1.1//EN" "http://www.w3.org/Graphics/SVG/1.1/DTD/svg11.dtd"><svg t="1583402821467" class="icon" viewBox="0 0 1024 1024" version="1.1" xmlns="http://www.w3.org/2000/svg" p-id="4394" xmlns:xlink="http://www.w3.org/1999/xlink" width="200" height="200"><defs><style type="text/css"></style></defs><path d="M454.4 910.4 193.6 910.4c-8 0-14.4-6.4-14.4-14.4L179.2 136c0-8 6.4-14.4 14.4-14.4l641.6 0c8 0 14.4 6.4 14.4 14.4l0 411.2 75.2 25.6L924.8 120c0-40-33.6-73.6-73.6-73.6L177.6 46.4C137.6 46.4 104 80 104 120l0 790.4c0 40 33.6 73.6 73.6 73.6l276.8 0L454.4 910.4l-144 0L454.4 910.4zM256 200l515.2 0 0 62.4L256 262.4 256 200 256 200 256 200zM256 339.2l177.6 0 0 65.6L256 404.8 256 339.2 256 339.2 256 339.2zM256 488l198.4 0 0 64L256 552 256 488 256 488 256 488zM256 488M924.8 756.8c0 123.2-96 222.4-214.4 222.4-118.4 0-214.4-99.2-214.4-222.4 0-123.2 96-222.4 214.4-222.4C828.8 532.8 924.8 633.6 924.8 756.8L924.8 756.8zM710.4 580.8c-92.8 0-168 78.4-168 174.4 0 96 75.2 174.4 168 174.4s168-78.4 168-174.4C878.4 659.2 803.2 580.8 710.4 580.8L710.4 580.8zM710.4 580.8M681.6 836.8l-59.2 0 0-40 59.2 0 0-20.8-59.2 0 0-38.4 44.8 0L624 660.8c-1.6-3.2-6.4-9.6-6.4-9.6l43.2-19.2 46.4 89.6 51.2-89.6 40 24-48 80 44.8 0 0 40-59.2 0 0 19.2 59.2 0 0 40-59.2 0 0 70.4-57.6 0L678.4 836.8 681.6 836.8 681.6 836.8zM681.6 836.8" p-id="4395"></path></svg>