<?xml version="1.0" standalone="no"?><!DOCTYPE svg PUBLIC "-//W3C//DTD SVG 1.1//EN" "http://www.w3.org/Graphics/SVG/1.1/DTD/svg11.dtd"><svg t="1594259490446" class="icon" viewBox="0 0 1024 1024" version="1.1" xmlns="http://www.w3.org/2000/svg" p-id="12396" width="128" height="128" xmlns:xlink="http://www.w3.org/1999/xlink"><defs><style type="text/css"></style></defs><path d="M466.79552 692.53632c-33.36192 200.832 97.72288 273.9456 136.27904 273.9456l-123.2768-0.72704c-21.5552 0.06912-43.1104-0.39936-64.64512-1.40288a2409.1392 2409.1392 0 0 1-76.12928-4.60544 3343.8464 3343.8464 0 0 1-78.0672-7.18336 1910.28992 1910.28992 0 0 1-70.3744-8.53248 941.06624 941.06624 0 0 1-53.632-8.98304c-14.68928-3.03104-23.92832-6.03392-27.8016-9.0368-6.99392-4.77184-12.24448-19.648-15.7824-44.544-3.50976-24.8704-2.048-56.81152 4.3264-95.82592 2.52416-14.9888 7.80544-27.28448 15.808-36.88192 7.9744-9.6 17.6896-17.85344 29.20448-24.7552a166.20288 166.20288 0 0 1 38.33088-16.64768 1473.60512 1473.60512 0 0 1 43.07968-12.15232 763.49952 763.49952 0 0 0 42.62656-12.57472c13.70368-4.49024 26.31168-10.07616 37.7984-16.64512 13.42208-7.80288 23.78496-15.46496 31.1424-22.96064 7.32928-7.49312 12.57984-14.848 15.7824-22.03136a54.99136 54.99136 0 0 0 4.80256-22.51264c0-7.80288-0.33792-16.47616-0.95488-26.10432-1.2928-13.75232-6.40256-24.69888-15.3344-32.83968a497.856 497.856 0 0 0-29.68064-24.69888 59.70688 59.70688 0 0 1-13.8752-17.57184 216.8064 216.8064 0 0 1-11.0336-22.96064 1354.00448 1354.00448 0 0 1-9.5488-27.89888 44.7744 44.7744 0 0 1-13.42208-6.28736 85.71392 85.71392 0 0 1-12.4672-12.57472c-4.43904-5.41696-8.28672-13.19168-11.48672-23.40864a74.51648 74.51648 0 0 1-3.81952-27.90144c0.64512-8.39168 2.55488-15.8848 5.72928-22.48192 2.55488-6.59712 6.70976-12.91264 12.4672-18.9184 0-22.79168 1.26464-45.58336 3.81952-68.37504 2.55488-19.2 7.01952-39.8848 13.39392-62.08768 6.04416-21.50144 16.128-41.65888 29.71136-59.392a193.74592 193.74592 0 0 1 41.16736-40.92416 199.808 199.808 0 0 1 45.99808-24.7552 217.41056 217.41056 0 0 1 47.40096-12.15488A343.59808 343.59808 0 0 1 479.79776 64a263.68 263.68 0 0 1 55.0656 5.8368c18.19904 3.93216 35.27168 9.152 51.2512 15.77728a239.4112 239.4112 0 0 1 42.5984 22.45376c12.4416 8.4224 22.18752 16.84224 29.20704 25.20576a185.3696 185.3696 0 0 1 36.39296 63.4368c7.6672 23.09888 13.11488 45.1584 16.28928 66.15552a550.3616 550.3616 0 0 1 4.77184 72.86528 31.8464 31.8464 0 0 1 10.56 11.70432c2.52672 4.2112 4.6336 9.6 6.20544 16.22272 1.6 6.56896 1.76896 14.6816 0.50688 24.27904-1.2928 13.19424-4.0192 23.552-8.14592 31.01696a59.73504 59.73504 0 0 1-13.9008 17.56928c-5.72672 4.77184-11.79392 8.08448-18.19648 9.8816a321.00608 321.00608 0 0 0-3.81696 11.67616l-4.7744 12.57472c-1.2928 4.2112-2.8928 8.67328-4.7744 13.47328-32.576 12.60288-61.30176 30.65088-89.58208 50.27072-75.84768 52.6848-114.82624 110.84288-122.65984 158.13632z m451.91936-14.31552c11.12064 25.54368 16.68096 52.79744 16.68096 81.73568 0 28.91008-5.56032 56.13568-16.68096 81.73568a217.88928 217.88928 0 0 1-45.07136 67.05408 206.60224 206.60224 0 0 1-66.74944 45.02272 206.31808 206.31808 0 0 1-81.80224 16.36352 208 208 0 0 1-82.4192-16.36352 206.60224 206.60224 0 0 1-66.752-45.02272 217.86112 217.86112 0 0 1-45.07136-67.08224 202.5728 202.5728 0 0 1-16.68096-81.70752c0-28.91008 5.56032-56.1664 16.68096-81.76384a218.03008 218.03008 0 0 1 45.07136-67.05408 211.51488 211.51488 0 0 1 66.752-45.35808 204.40576 204.40576 0 0 1 82.4192-16.67328c28.92288 0 56.2176 5.5296 81.80224 16.67328a211.51488 211.51488 0 0 1 66.74944 45.35808 218.0864 218.0864 0 0 1 45.07136 67.08224z m-184.27136 226.87744l139.11552-236.11136h-61.8368l-77.27872 140.0064-61.80864-140.0064h-61.8368l120.75264 223.5648 2.8928 12.544v0.00256z" p-id="12397"></path></svg>